<svg width="29" height="28" viewBox="0 0 29 28" fill="none" xmlns="http://www.w3.org/2000/svg">
<path d="M14.6 0C10.8869 0 7.32599 1.43537 4.70048 3.99035C2.07497 6.54533 0.599976 10.0106 0.599976 13.6239C0.599976 17.2372 2.07497 20.7025 4.70048 23.2575C7.32599 25.8124 10.8869 27.2478 14.6 27.2478C18.313 27.2478 21.874 25.8124 24.4995 23.2575C27.125 20.7025 28.6 17.2372 28.6 13.6239C28.6 10.0106 27.125 6.54533 24.4995 3.99035C21.874 1.43537 18.313 0 14.6 0ZM2.32664 14.6533H6.23109C6.29331 16.0308 6.49086 17.3992 6.8222 18.7404H3.4622C2.83563 17.4551 2.45102 16.0708 2.32664 14.6533ZM15.6578 6.47892V1.80138C17.1568 2.35576 18.3886 3.43568 19.1111 4.82892C19.43 5.35419 19.7115 5.90066 19.9511 6.46379L15.6578 6.47892ZM20.6666 8.52251C21.0275 9.85916 21.2422 11.2291 21.3044 12.6097H15.6578V8.52251H20.6666ZM13.5422 1.80138V6.47892H9.24886C9.48883 5.91534 9.76953 5.36902 10.0889 4.84405C10.8083 3.44511 12.0405 2.35945 13.5422 1.80138ZM13.5422 8.52251V12.6097H7.91109C7.97331 11.2291 8.18798 9.85916 8.54886 8.52251H13.5422ZM6.23109 12.5945H2.32664C2.45102 11.177 2.83563 9.79274 3.4622 8.50737H6.8222C6.49023 9.84803 6.29227 11.2168 6.23109 12.5945ZM7.91109 14.6533H13.5422V18.7404H8.54886C8.18803 17.4039 7.97424 16.0338 7.91109 14.6533ZM13.5578 20.7083V25.3859C12.0587 24.8315 10.8269 23.7516 10.1044 22.3583C9.78509 21.8334 9.50438 21.2871 9.26442 20.7235L13.5578 20.7083ZM15.6578 25.3859V20.784H19.9511C19.7111 21.3476 19.4304 21.8939 19.1111 22.4189C18.3886 23.8121 17.1568 24.892 15.6578 25.4464V25.3859ZM15.6578 18.6647V14.5776H21.2889C21.2257 15.9581 21.0119 17.3282 20.6511 18.6647H15.6578ZM22.9844 14.5776H26.8889C26.7645 15.9951 26.3799 17.3794 25.7533 18.6647H22.3778C22.7044 17.3478 22.902 16.0051 22.9689 14.6533L22.9844 14.5776ZM22.9844 12.534C22.9132 11.1812 22.7101 9.83796 22.3778 8.52251H25.7378C26.3646 9.80921 26.7489 11.1928 26.8733 12.6097L22.9844 12.534ZM24.54 6.47892H21.7555C21.2517 5.10185 20.5215 3.81352 19.5933 2.66423C21.529 3.50979 23.2104 4.82294 24.4778 6.47892H24.54ZM9.60664 2.66423C8.67847 3.81352 7.94823 5.10185 7.44442 6.47892H4.7222C5.98954 4.82294 7.67094 3.50979 9.60664 2.66423ZM4.70664 20.8294H7.44442C7.94823 22.2065 8.67847 23.4948 9.60664 24.6441C7.66558 23.7858 5.98367 22.4567 4.7222 20.784L4.70664 20.8294ZM19.5778 24.6441C20.5059 23.4948 21.2362 22.2065 21.74 20.8294H24.4778C23.2027 22.4632 21.5219 23.755 19.5933 24.5836L19.5778 24.6441Z" fill="white"/>
</svg>
