<?xml version="1.0" encoding="utf-8"?>
<!-- Generator: Adobe Illustrator 24.3.0, SVG Export Plug-In . SVG Version: 6.00 Build 0)  -->
<svg version="1.1" id="Layer_1" xmlns="http://www.w3.org/2000/svg" xmlns:xlink="http://www.w3.org/1999/xlink" x="0px" y="0px"
	 viewBox="0 0 100 103.6" style="enable-background:new 0 0 100 103.6;" xml:space="preserve">
<style type="text/css">
	.st0{fill:#FFFFFF;}
</style>
<path class="st0" d="M50,10.8c22.1,0,40,17.9,40,40c0,10.5-4,20.4-11.4,27.9c-7.3,7.5-17,11.8-27.5,12.1H9.9V50.5
	C10.2,28.6,28.1,10.8,50,10.8 M50,5.8C25.3,5.8,5.2,25.7,5,50.4v45.4h46.2C75.5,95.1,95,75.2,95,50.8C95,25.9,74.9,5.8,50,5.8
	L50,5.8z"/>
<g>
	<path class="st0" d="M54.4,68.8h5.3v5.7H40.2v-5.7h5.3V45.9h-5.3v-5.7h14.2V68.8z M54.1,26.2v8.2h-9.7v-8.2H54.1z"/>
</g>
</svg>
