<svg width="19" height="19" viewBox="0 0 19 19" fill="none" xmlns="http://www.w3.org/2000/svg">
<path d="M17.8652 16.79L14.4516 13.4C15.5529 12.0025 16.1506 10.2767 16.1483 8.5C16.1483 6.91775 15.6773 5.37103 14.7947 4.05544C13.9121 2.73985 12.6577 1.71447 11.19 1.10897C9.72235 0.503466 8.10737 0.34504 6.54931 0.653721C4.99124 0.962403 3.56007 1.72433 2.43677 2.84315C1.31346 3.96197 0.548484 5.38743 0.238566 6.93928C-0.0713528 8.49113 0.0877087 10.0997 0.695636 11.5615C1.30356 13.0233 2.33305 14.2727 3.65391 15.1518C4.97478 16.0308 6.52769 16.5 8.11628 16.5C9.90006 16.5022 11.6328 15.907 13.0359 14.81L16.4395 18.21C16.5328 18.3037 16.6439 18.3781 16.7662 18.4289C16.8886 18.4797 17.0198 18.5058 17.1523 18.5058C17.2849 18.5058 17.4161 18.4797 17.5385 18.4289C17.6608 18.3781 17.7719 18.3037 17.8652 18.21C17.9593 18.117 18.034 18.0064 18.085 17.8846C18.1359 17.7627 18.1622 17.632 18.1622 17.5C18.1622 17.368 18.1359 17.2373 18.085 17.1154C18.034 16.9936 17.9593 16.883 17.8652 16.79ZM2.09225 8.5C2.09225 7.31331 2.44555 6.15328 3.10748 5.16658C3.76941 4.17989 4.71024 3.41085 5.81098 2.95673C6.91173 2.5026 8.12297 2.38378 9.29152 2.61529C10.4601 2.8468 11.5334 3.41825 12.3759 4.25736C13.2184 5.09648 13.7921 6.16557 14.0246 7.32946C14.257 8.49335 14.1377 9.69975 13.6818 10.7961C13.2258 11.8925 12.4537 12.8295 11.4631 13.4888C10.4724 14.1481 9.30773 14.5 8.11628 14.5C6.51861 14.5 4.98637 13.8679 3.85665 12.7426C2.72692 11.6174 2.09225 10.0913 2.09225 8.5Z" fill="#808285" fill-opacity="0.66"/>
</svg>
