<svg width="34" height="33" viewBox="0 0 34 33" fill="none" xmlns="http://www.w3.org/2000/svg">
<path d="M33.4511 24.0829V31.2682C33.4511 31.4109 33.4311 31.5442 33.4004 31.6656C33.2564 32.3722 32.6337 32.9029 31.8977 32.9029H2.53375C1.74708 32.9029 1.09108 32.3002 1.01108 31.5336C0.989747 31.4429 0.989746 31.3602 0.989746 31.2576V24.0722C0.989746 23.2242 1.68575 22.5402 2.52308 22.5402C2.94175 22.5402 3.33108 22.7136 3.60575 22.9896C3.88175 23.2656 4.05641 23.6536 4.05641 24.0722V29.8282H30.3951V24.0722C30.3951 23.2242 31.0897 22.5402 31.9284 22.5402C32.3484 22.5402 32.7364 22.7136 33.0124 22.9896C33.2777 23.2762 33.4511 23.6642 33.4511 24.0829Z" fill="white"/>
<path d="M26.0617 16.8876L18.5297 24.4196C18.5191 24.4409 18.4977 24.4516 18.4871 24.4609C18.2124 24.7369 17.8551 24.9116 17.4964 24.9622C17.4671 24.9622 17.4351 24.9716 17.4044 24.9716C17.3431 24.9822 17.2817 24.9822 17.2204 24.9822L17.0471 24.9716C17.0164 24.9716 16.9857 24.9622 16.9551 24.9622C16.5871 24.9116 16.2404 24.7369 15.9644 24.4609C15.9537 24.4516 15.9324 24.4302 15.9231 24.4196L8.38974 16.8876C8.04174 16.5396 7.86841 16.0809 7.86841 15.6209C7.86841 15.1596 8.04174 14.6996 8.38974 14.3529C9.08574 13.6569 10.2191 13.6569 10.9244 14.3529L15.4524 18.8809V2.2929C15.4524 1.31024 16.2591 0.503571 17.2417 0.503571C17.7324 0.503571 18.1817 0.707571 18.5084 1.0249C18.8351 1.3529 19.0311 1.79157 19.0311 2.2929V18.8809L23.5577 14.3529C24.2537 13.6569 25.3871 13.6569 26.0924 14.3529C26.7564 15.0582 26.7564 16.1929 26.0617 16.8876Z" fill="white"/>
</svg>
