<svg width="28" height="28" viewBox="0 0 28 28" fill="none" xmlns="http://www.w3.org/2000/svg">
<path d="M26.9726 11.5505L14.9155 0.986207C14.5235 0.64277 14.0073 0.456907 13.4748 0.467468C12.9424 0.478028 12.4347 0.684194 12.0581 1.04287L0.969099 11.6039L0.400024 12.1458V27.7148H11.0857V18.0006H16.9143V27.7148H27.6V12.1003L26.9726 11.5505ZM13.5166 2.3174C13.5337 2.3174 13.5232 2.32093 13.5158 2.32781C13.5082 2.32093 13.4995 2.3174 13.5166 2.3174ZM25.6572 25.8645H18.8572V18.0006C18.8572 17.5099 18.6525 17.0392 18.2881 16.6922C17.9238 16.3452 17.4296 16.1503 16.9143 16.1503H11.0857C10.5705 16.1503 10.0763 16.3452 9.71193 16.6922C9.34758 17.0392 9.14288 17.5099 9.14288 18.0006V25.8645H2.34288V12.9122L13.5166 2.35123C13.5174 2.35054 13.5175 2.3499 13.5181 2.34921L25.6572 12.9122V25.8645Z" fill="white"/>
</svg>
