<svg width="10" height="5" viewBox="0 0 10 5" fill="none" xmlns="http://www.w3.org/2000/svg">
<path d="M9.72143 1.36094C9.72177 1.45293 9.69977 1.54382 9.65706 1.62694C9.61435 1.71005 9.552 1.78328 9.47461 1.84123L5.47216 4.81537C5.35279 4.90593 5.20307 4.95544 5.04856 4.95544C4.89405 4.95544 4.74433 4.90593 4.62497 4.81537L0.622514 1.73655C0.486286 1.63204 0.400617 1.48184 0.384354 1.31902C0.36809 1.1562 0.422565 0.994078 0.535794 0.86833C0.649022 0.74258 0.81173 0.663502 0.988122 0.64849C1.16451 0.633478 1.34014 0.683762 1.47637 0.788281L5.0519 3.54074L8.62742 0.880645C8.72534 0.805348 8.84457 0.757517 8.97102 0.742813C9.09746 0.728109 9.22582 0.747146 9.34091 0.797673C9.456 0.8482 9.553 0.928102 9.62044 1.02792C9.68787 1.12774 9.72292 1.24331 9.72143 1.36094Z" fill="#484F5A"/>
</svg>
