<svg width="45" height="40" viewBox="0 0 45 40" fill="black" xmlns="http://www.w3.org/2000/svg">
<path d="M40.7857 34.144C41.3471 34.144 41.7711 34.5666 41.7711 35.128C41.7711 35.6906 41.3471 36.1146 40.7857 36.1146C40.2244 36.1146 39.8004 35.6906 39.8004 35.128C39.8004 34.5666 40.2244 34.144 40.7857 34.144ZM4.32439 34.144C4.88572 34.144 5.31106 34.5666 5.31106 35.128C5.31106 35.6906 4.88572 36.1146 4.32439 36.1146C3.76172 36.1146 3.33906 35.6906 3.33906 35.128C3.33906 34.5666 3.76172 34.144 4.32439 34.144ZM30.4377 21.6106V29.616L24.0337 33.4973V25.1666L30.4377 21.6106ZM14.6711 21.6106L21.0777 25.1666V33.4973L14.6711 29.616V21.6106ZM22.5551 3.59462C23.1164 3.59462 23.5404 4.01862 23.5404 4.57995C23.5404 5.14262 23.1164 5.56528 22.5551 5.56528C21.9937 5.56528 21.5697 5.14262 21.5697 4.57995C21.5697 4.01862 21.9937 3.59462 22.5551 3.59462ZM22.5551 0.638618C20.3951 0.638618 18.6137 2.42128 18.6137 4.57995C18.6137 6.21729 19.6417 7.63862 21.0777 8.22928V13.5106L12.5324 17.7906C12.0311 18.0426 11.7137 18.556 11.7151 19.116V29.8013L7.06572 32.3106C6.35372 31.6173 5.38439 31.1866 4.32439 31.1866C2.16439 31.1866 0.383057 32.9693 0.383057 35.128C0.383057 37.288 2.16439 39.0706 4.32439 39.0706C6.48306 39.0706 8.26572 37.288 8.26572 35.128C8.26572 35.0973 8.26706 35.0666 8.26572 35.036L13.3777 32.2813L21.7857 37.3773C22.2577 37.6653 22.8524 37.6653 23.3244 37.3773L31.7324 32.2813L36.8444 35.036C36.8431 35.0666 36.8444 35.0973 36.8444 35.128C36.8444 37.288 38.6271 39.0706 40.7857 39.0706C42.9444 39.0706 44.7271 37.288 44.7271 35.128C44.7271 32.9693 42.9444 31.1866 40.7857 31.1866C39.7257 31.1866 38.7577 31.6173 38.0444 32.3106L33.3951 29.8013V19.116C33.3964 18.556 33.0804 18.0426 32.5791 17.7906L27.6364 15.3279C26.9204 14.9359 26.0217 15.2 25.6311 15.916C25.2391 16.632 25.5017 17.5306 26.2177 17.9226C26.2551 17.9426 26.2911 17.9586 26.3271 17.976L28.7137 19.176L22.5551 22.596L16.3964 19.176L23.2164 15.7586C23.7177 15.5066 24.0351 14.996 24.0337 14.4346V8.22928C25.4697 7.63862 26.4964 6.21729 26.4964 4.57995C26.4964 2.42128 24.7137 0.638618 22.5551 0.638618Z" fill="#414855"/>
</svg>
