<svg width="19" height="20" viewBox="0 0 19 20" fill="none" xmlns="http://www.w3.org/2000/svg">
<path d="M10.2429 5.08655C10.1472 5.01334 10.0367 4.95956 9.9082 4.92968C9.78121 4.90129 9.64676 4.88486 9.50184 4.88486C9.35692 4.88486 9.22097 4.8998 9.09249 4.92968C8.96251 4.95806 8.85195 5.01185 8.75484 5.08655C8.65923 5.15975 8.58453 5.25686 8.52925 5.37787C8.47547 5.49889 8.44708 5.65127 8.44708 5.83205C8.44708 6.00983 8.47547 6.15923 8.52925 6.28323C8.58453 6.40424 8.65923 6.50434 8.75484 6.57755C8.85046 6.65075 8.96251 6.70454 9.09249 6.73591C9.22097 6.76728 9.35692 6.78372 9.50184 6.78372C9.64526 6.78372 9.78121 6.76728 9.9082 6.73591C10.0367 6.70454 10.1472 6.65075 10.2429 6.57755C10.3385 6.50434 10.4147 6.40424 10.4714 6.28323C10.5282 6.15923 10.5566 6.00983 10.5566 5.83205C10.5566 5.64978 10.5282 5.49739 10.4714 5.37787C10.4147 5.25686 10.3385 5.15975 10.2429 5.08655Z" fill="#808285" fill-opacity="0.66"/>
<path d="M8.53217 7.66815H10.4699V14.7661H8.53217V7.66815Z" fill="#808285" fill-opacity="0.66"/>
<path d="M9.50028 0.417694C4.26086 0.417694 0 4.67855 0 9.91797C0 15.1559 4.26086 19.4182 9.49878 19.4182C14.7367 19.4182 18.9991 15.1574 18.9991 9.91797C19.0006 4.67855 14.7382 0.417694 9.50028 0.417694ZM9.50028 18.0468C5.01831 18.0468 1.37298 14.3999 1.37298 9.91797C1.37298 5.436 5.01831 1.78918 9.50028 1.78918C13.9822 1.78918 17.6291 5.436 17.6291 9.91946C17.6276 14.3999 13.9807 18.0468 9.50028 18.0468Z" fill="#808285" fill-opacity="0.66"/>
</svg>
