<svg width="33" height="34" viewBox="0 0 33 34" fill="none" xmlns="http://www.w3.org/2000/svg">
<path d="M16.5 0.96994C13.2366 0.96994 10.0465 1.93765 7.3331 3.75069C4.61969 5.56373 2.50484 8.14068 1.25599 11.1557C0.00714919 14.1706 -0.319606 17.4882 0.31705 20.6889C0.953706 23.8896 2.52518 26.8296 4.83274 29.1372C7.14031 31.4448 10.0803 33.0162 13.281 33.6529C16.4817 34.2895 19.7993 33.9628 22.8143 32.7139C25.8293 31.4651 28.4062 29.3503 30.2192 26.6368C32.0323 23.9234 33 20.7333 33 17.4699C33 15.3031 32.5732 13.1575 31.744 11.1557C30.9148 9.15379 29.6994 7.33484 28.1673 5.80268C26.6351 4.27051 24.8162 3.05513 22.8143 2.22593C20.8124 1.39673 18.6668 0.96994 16.5 0.96994V0.96994ZM16.5 30.6699C13.8893 30.6699 11.3372 29.8958 9.16648 28.4453C6.99575 26.9949 5.30387 24.9333 4.3048 22.5214C3.30572 20.1094 3.04432 17.4553 3.55364 14.8947C4.06297 12.3342 5.32014 9.98218 7.1662 8.13613C9.01225 6.29008 11.3643 5.0329 13.9248 4.52357C16.4854 4.01425 19.1394 4.27565 21.5514 5.27473C23.9634 6.27381 26.025 7.96568 27.4754 10.1364C28.9258 12.3071 29.7 14.8592 29.7 17.4699C29.7 20.9708 28.3093 24.3283 25.8338 26.8037C23.3583 29.2792 20.0009 30.6699 16.5 30.6699V30.6699Z" fill="#F1F2F2"/>
<path d="M20.2172 11.8946L15.0181 19.6231L12.7761 16.3617C12.5518 16.0378 12.2221 15.8274 11.8597 15.7767C11.4973 15.7259 11.1318 15.8391 10.8436 16.0912C10.5555 16.3433 10.3682 16.7137 10.3231 17.121C10.2779 17.5283 10.3786 17.939 10.6029 18.2629L13.9452 23.07C14.0748 23.2543 14.2399 23.4029 14.4282 23.5047C14.6165 23.6064 14.8229 23.6587 15.0318 23.6574C15.2419 23.6569 15.449 23.6022 15.6374 23.4977C15.8257 23.3932 15.9903 23.2416 16.1184 23.0546L22.4041 13.7804C22.6266 13.4524 22.7241 13.0385 22.6751 12.6298C22.6261 12.2211 22.4346 11.851 22.1428 11.6009C21.851 11.3508 21.4827 11.2413 21.119 11.2964C20.7553 11.3515 20.4259 11.5666 20.2034 11.8946H20.2172Z" fill="#F1F2F2"/>
</svg>
