<svg width="26" height="26" viewBox="0 0 26 26" fill="none" xmlns="http://www.w3.org/2000/svg">
<path d="M23.4479 13.5447V12.8454V12.1369L25.2634 10.5911C25.598 10.304 25.8176 9.91112 25.8834 9.48176C25.9491 9.0524 25.8568 8.61425 25.6227 8.24473L23.3912 4.5642C23.2254 4.28472 22.987 4.05259 22.6999 3.89109C22.4128 3.72959 22.0871 3.6444 21.7554 3.64407C21.5499 3.64253 21.3455 3.67361 21.1503 3.73608L18.8527 4.49059C18.456 4.23406 18.0422 4.00352 17.614 3.80049L17.1318 1.48175C17.0453 1.05813 16.8085 0.677593 16.4628 0.406763C16.1171 0.135933 15.6845 -0.00793724 15.2407 0.000338085H10.8156C10.3719 -0.00793724 9.93928 0.135933 9.59356 0.406763C9.24784 0.677593 9.01101 1.05813 8.92455 1.48175L8.44233 3.80049C8.0111 4.00347 7.59415 4.23401 7.19422 4.49059L4.94385 3.69927C4.74652 3.64924 4.54216 3.6306 4.33871 3.64407C4.00709 3.6444 3.68138 3.72959 3.39428 3.89109C3.10717 4.05259 2.86875 4.28472 2.70294 4.5642L0.471477 8.24473C0.250777 8.61369 0.168766 9.04585 0.239489 9.46719C0.310213 9.88852 0.529271 10.2728 0.859146 10.5543L2.6462 12.1461V13.5539L0.859146 15.0997C0.519953 15.3831 0.294904 15.7743 0.223935 16.2038C0.152966 16.6334 0.240668 17.0735 0.471477 17.4461L2.70294 21.1266C2.86875 21.4061 3.10717 21.6382 3.39428 21.7997C3.68138 21.9612 4.00709 22.0464 4.33871 22.0467C4.54422 22.0483 4.74862 22.0172 4.94385 21.9547L7.2415 21.2002C7.63819 21.4567 8.05199 21.6873 8.48015 21.8903L8.96237 24.209C9.04883 24.6327 9.28566 25.0132 9.63138 25.284C9.9771 25.5549 10.4097 25.6987 10.8534 25.6905H15.3164C15.7601 25.6987 16.1927 25.5549 16.5384 25.284C16.8841 25.0132 17.121 24.6327 17.2074 24.209L17.6896 21.8903C18.1209 21.6873 18.5378 21.4568 18.9378 21.2002L21.2259 21.9547C21.4212 22.0172 21.6256 22.0483 21.8311 22.0467C22.1627 22.0464 22.4884 21.9612 22.7755 21.7997C23.0626 21.6382 23.301 21.4061 23.4669 21.1266L25.6227 17.4461C25.8434 17.0771 25.9254 16.6449 25.8547 16.2236C25.7839 15.8023 25.5649 15.418 25.235 15.1365L23.4479 13.5447ZM21.7554 20.2065L18.5123 19.1391C17.7531 19.7649 16.8854 20.2541 15.9499 20.5837L15.2785 23.887H10.8156L10.1443 20.6205C9.21617 20.2815 8.35318 19.7932 7.59135 19.1759L4.33871 20.2065L2.10725 16.5259L4.6791 14.3176C4.50427 13.3651 4.50427 12.3901 4.6791 11.4376L2.10725 9.16486L4.33871 5.48433L7.58189 6.55169C8.34109 5.9259 9.20878 5.43672 10.1443 5.10708L10.8156 1.8038H15.2785L15.9499 5.07027C16.878 5.40927 17.741 5.8976 18.5028 6.51488L21.7554 5.48433L23.9869 9.16486L21.4151 11.3732C21.5899 12.3257 21.5899 13.3007 21.4151 14.2532L23.9869 16.5259L21.7554 20.2065Z" fill="white"/>
<path d="M13.0471 18.3664C11.9251 18.3664 10.8282 18.0426 9.89524 17.4359C8.96229 16.8293 8.23514 15.9671 7.80575 14.9583C7.37636 13.9495 7.26401 12.8394 7.48291 11.7685C7.70181 10.6975 8.24213 9.71382 9.03555 8.94172C9.82896 8.16962 10.8398 7.64381 11.9403 7.43079C13.0408 7.21777 14.1815 7.3271 15.2181 7.74496C16.2548 8.16282 17.1408 8.87043 17.7642 9.77833C18.3876 10.6862 18.7203 11.7536 18.7203 12.8455C18.7279 13.5726 18.5863 14.2938 18.3039 14.967C18.0215 15.6401 17.6039 16.2517 17.0756 16.7658C16.5472 17.2799 15.9188 17.6863 15.2271 17.9611C14.5354 18.236 13.7942 18.3737 13.0471 18.3664V18.3664ZM13.0471 9.16498C12.5472 9.15365 12.0502 9.24111 11.5861 9.42206C11.1219 9.60301 10.7004 9.87371 10.3468 10.2178C9.99325 10.5618 9.71509 10.9721 9.52914 11.4238C9.3432 11.8754 9.25333 12.3591 9.26497 12.8455C9.25333 13.332 9.3432 13.8156 9.52914 14.2673C9.71509 14.719 9.99325 15.1293 10.3468 15.4733C10.7004 15.8174 11.1219 16.0881 11.5861 16.269C12.0502 16.45 12.5472 16.5374 13.0471 16.5261C13.547 16.5374 14.044 16.45 14.5081 16.269C14.9723 16.0881 15.3939 15.8174 15.7474 15.4733C16.101 15.1293 16.3791 14.719 16.5651 14.2673C16.751 13.8156 16.8409 13.332 16.8292 12.8455C16.8409 12.3591 16.751 11.8754 16.5651 11.4238C16.3791 10.9721 16.101 10.5618 15.7474 10.2178C15.3939 9.87371 14.9723 9.60301 14.5081 9.42206C14.044 9.24111 13.547 9.15365 13.0471 9.16498Z" fill="white"/>
</svg>
