<svg width="32" height="32" viewBox="0 0 32 32" fill="none" xmlns="http://www.w3.org/2000/svg">
<path d="M14.7596 7.52197C14.7596 6.81047 14.5005 5.15272 16.0479 5.15272C17.5952 5.15272 17.3362 6.81047 17.3362 7.52197" stroke="#484F5A" stroke-width="1.5"/>
<path fill-rule="evenodd" clip-rule="evenodd" d="M7.02983 16.54C7.02983 11.5595 11.0673 7.52197 16.0479 7.52197V7.52197C21.0284 7.52197 25.0659 11.5595 25.0659 16.54V22.5243C25.0659 22.5604 25.0789 22.5952 25.1025 22.6225L26.2111 23.9038C26.7716 24.5515 26.3114 25.5581 25.4549 25.5581H6.64086C5.78431 25.5581 5.32419 24.5515 5.88464 23.9038L6.99326 22.6225C7.01685 22.5952 7.02983 22.5604 7.02983 22.5243V16.54Z" stroke="#484F5A" stroke-width="1.5"/>
<path fill-rule="evenodd" clip-rule="evenodd" d="M28.2866 6.44146C30.0654 6.44146 31.5074 4.99949 31.5074 3.22073C31.5074 1.44197 30.0654 0 28.2866 0C26.5079 0 25.0659 1.44197 25.0659 3.22073C25.0659 4.99949 26.5079 6.44146 28.2866 6.44146Z" fill="#45A8DF"/>
<path d="M13.4713 26.5244C13.4713 27.9474 14.6249 29.101 16.0479 29.101C17.4709 29.101 18.6245 27.9474 18.6245 26.5244" stroke="#484F5A" stroke-width="1.5"/>
</svg>
