<svg width="31" height="42" viewBox="0 0 31 42" fill="none" xmlns="http://www.w3.org/2000/svg">
<path d="M27.7453 36.8615L16.4986 27.4788C16.2293 27.2548 15.9 27.1428 15.5693 27.1428C15.24 27.1428 14.9106 27.2548 14.6413 27.4788L3.39464 36.8615V3.76681H27.7453V36.8615ZM29.1946 0.86681H1.9453C1.1453 0.86681 0.495972 1.51481 0.495972 2.31614V39.9588C0.495972 40.5215 0.822638 41.0335 1.33064 41.2721C1.83997 41.5095 2.44131 41.4321 2.87464 41.0708L15.5693 30.4801L28.2666 41.0708C28.532 41.2935 28.8613 41.4081 29.1946 41.4081C29.4026 41.4081 29.612 41.3628 29.808 41.2721C30.3186 41.0335 30.644 40.5215 30.644 39.9588V2.31614C30.644 1.51481 29.9946 0.86681 29.1946 0.86681Z" fill="#414855"/>
</svg>
