<svg width="33" height="33" viewBox="0 0 33 33" fill="none" xmlns="http://www.w3.org/2000/svg">
<path d="M16.5 0C7.38817 0 0 7.38817 0 16.5C0 25.6118 7.38817 33 16.5 33C25.6118 33 33 25.6118 33 16.5C33 7.38817 25.6118 0 16.5 0ZM23.6267 11.1117L15.8702 21.8662C15.7618 22.0175 15.6189 22.1408 15.4533 22.2258C15.2877 22.3109 15.1043 22.3553 14.9181 22.3553C14.732 22.3553 14.5485 22.3109 14.383 22.2258C14.2174 22.1408 14.0745 22.0175 13.9661 21.8662L9.37333 15.5019C9.23337 15.3067 9.37333 15.0342 9.61272 15.0342H11.3401C11.7157 15.0342 12.073 15.2146 12.294 15.524L14.9163 19.1628L20.706 11.1338C20.927 10.8281 21.2806 10.644 21.6599 10.644H23.3873C23.6267 10.644 23.7666 10.9165 23.6267 11.1117V11.1117Z" fill="#45A8DF"/>
</svg>
