<?xml version="1.0" encoding="utf-8"?>
<!-- Generator: Adobe Illustrator 24.3.0, SVG Export Plug-In . SVG Version: 6.00 Build 0)  -->
<svg version="1.1" id="Layer_1" xmlns="http://www.w3.org/2000/svg" xmlns:xlink="http://www.w3.org/1999/xlink" x="0px" y="0px"
	 viewBox="0 0 339 156.5" style="enable-background:new 0 0 339 156.5;" xml:space="preserve">
<style type="text/css">
	.st0{fill:#FFFFFF;}
</style>
<polygon id="XMLID_9_" class="st0" points="98.7,22.6 308.5,7.9 314.3,22.4 284.4,38 285.4,44.8 305.1,42.6 308.7,52 318.1,41.2 
	328.9,50.1 308.6,69.9 292.6,68.3 288.9,88.6 301.6,89.9 301.7,95.1 284.3,107.5 262.3,109.5 238.6,141.8 221.4,146.1 178.6,103.6 
	154.1,103.1 148.7,107.8 133.8,105.6 129.5,92.5 80.6,89.7 50.5,100.7 7.1,102.2 15.9,78.5 37.1,74.6 97.3,36.6 "/>
</svg>
