<svg width="33" height="34" viewBox="0 0 33 34" fill="none" xmlns="http://www.w3.org/2000/svg">
<path d="M16.5 0.96994C13.2366 0.96994 10.0465 1.93765 7.3331 3.75069C4.61969 5.56373 2.50484 8.14068 1.25599 11.1557C0.00714931 14.1706 -0.319606 17.4882 0.31705 20.6889C0.953706 23.8896 2.52518 26.8296 4.83274 29.1372C7.14031 31.4448 10.0803 33.0162 13.281 33.6529C16.4817 34.2895 19.7993 33.9628 22.8143 32.7139C25.8293 31.4651 28.4062 29.3503 30.2192 26.6368C32.0323 23.9234 33 20.7333 33 17.4699C33 15.3031 32.5732 13.1575 31.744 11.1557C30.9148 9.15379 29.6994 7.33484 28.1673 5.80268C26.6351 4.27051 24.8162 3.05513 22.8143 2.22593C20.8124 1.39673 18.6668 0.96994 16.5 0.96994ZM23.595 13.5264L16.0545 23.4264C15.9008 23.6261 15.7034 23.7879 15.4774 23.8995C15.2515 24.011 15.003 24.0693 14.751 24.0699C14.5004 24.0713 14.2527 24.0155 14.0269 23.9069C13.801 23.7982 13.6029 23.6396 13.4475 23.4429L9.42151 18.3114C9.28825 18.1403 9.19001 17.9445 9.1324 17.7354C9.07479 17.5262 9.05894 17.3078 9.08575 17.0925C9.11257 16.8772 9.18152 16.6694 9.28867 16.4807C9.39582 16.2921 9.53908 16.1264 9.71026 15.9932C10.056 15.7241 10.4944 15.6033 10.9292 15.6574C11.1445 15.6842 11.3523 15.7532 11.541 15.8604C11.7296 15.9675 11.8952 16.1108 12.0285 16.2819L14.718 19.7139L20.955 11.4639C21.0872 11.2906 21.2522 11.145 21.4407 11.0354C21.6291 10.9258 21.8373 10.8545 22.0533 10.8254C22.2694 10.7962 22.489 10.81 22.6997 10.8657C22.9105 10.9215 23.1082 11.0183 23.2815 11.1504C23.4548 11.2826 23.6005 11.4476 23.71 11.6361C23.8196 11.8245 23.891 12.0327 23.9201 12.2488C23.9492 12.4648 23.9355 12.6844 23.8797 12.8952C23.8239 13.1059 23.7272 13.3036 23.595 13.4769V13.5264Z" fill="white"/>
</svg>
