<svg width="32" height="30" viewBox="0 0 32 30" fill="none" xmlns="http://www.w3.org/2000/svg">
<path fill-rule="evenodd" clip-rule="evenodd" d="M26.644 21.2027C26.4364 21.4055 26.2773 21.6503 26.1781 21.9198C26.0789 22.1893 26.042 22.4767 26.07 22.7617C26.2106 24.0804 26.477 25.3836 26.866 26.6542C24.076 26.0256 22.372 25.2976 21.598 24.9162C21.159 24.6998 20.6534 24.6485 20.178 24.7722C18.8151 25.1257 17.4105 25.3037 16 25.3015C8.008 25.3015 2 19.8384 2 13.6239C2 7.41141 8.008 1.94627 16 1.94627C23.992 1.94627 30 7.41141 30 13.6239C30 16.481 28.766 19.1319 26.644 21.2027ZM27.63 28.8029C28.1039 28.8943 28.5793 28.978 29.056 29.054C29.456 29.1162 29.76 28.7114 29.602 28.3494C29.4244 27.9419 29.2616 27.5283 29.114 27.1096L29.108 27.0902C28.612 25.6888 28.208 24.0773 28.06 22.5768C30.514 20.1828 32 17.0493 32 13.6239C32 6.09962 24.836 0 16 0C7.164 0 0 6.09962 0 13.6239C0 21.1482 7.164 27.2478 16 27.2478C17.5847 27.2499 19.1628 27.0497 20.694 26.6523C21.734 27.1641 23.972 28.0964 27.63 28.8029V28.8029Z" fill="white"/>
<path d="M22 13.6233C22 14.1395 22.2107 14.6345 22.5858 14.9995C22.9609 15.3645 23.4696 15.5696 24 15.5696C24.5304 15.5696 25.0391 15.3645 25.4142 14.9995C25.7893 14.6345 26 14.1395 26 13.6233C26 13.1071 25.7893 12.6121 25.4142 12.2471C25.0391 11.8821 24.5304 11.677 24 11.677C23.4696 11.677 22.9609 11.8821 22.5858 12.2471C22.2107 12.6121 22 13.1071 22 13.6233V13.6233ZM14 13.6233C14 14.1395 14.2107 14.6345 14.5858 14.9995C14.9609 15.3645 15.4696 15.5696 16 15.5696C16.5304 15.5696 17.0391 15.3645 17.4142 14.9995C17.7893 14.6345 18 14.1395 18 13.6233C18 13.1071 17.7893 12.6121 17.4142 12.2471C17.0391 11.8821 16.5304 11.677 16 11.677C15.4696 11.677 14.9609 11.8821 14.5858 12.2471C14.2107 12.6121 14 13.1071 14 13.6233ZM6 13.6233C6 14.1395 6.21071 14.6345 6.58579 14.9995C6.96086 15.3645 7.46957 15.5696 8 15.5696C8.53043 15.5696 9.03914 15.3645 9.41421 14.9995C9.78929 14.6345 10 14.1395 10 13.6233C10 13.1071 9.78929 12.6121 9.41421 12.2471C9.03914 11.8821 8.53043 11.677 8 11.677C7.46957 11.677 6.96086 11.8821 6.58579 12.2471C6.21071 12.6121 6 13.1071 6 13.6233Z" fill="white"/>
</svg>
